<svg xmlns="http://www.w3.org/2000/svg" version="1.1" xmlns:xlink="http://www.w3.org/1999/xlink" xmlns:svgjs="http://svgjs.com/svgjs" width="32" height="32"><svg xmlns:dc="http://purl.org/dc/elements/1.1/" xmlns:cc="http://creativecommons.org/ns#" xmlns:rdf="http://www.w3.org/1999/02/22-rdf-syntax-ns#" xmlns:svg="http://www.w3.org/2000/svg" xmlns="http://www.w3.org/2000/svg" xmlns:sodipodi="http://sodipodi.sourceforge.net/DTD/sodipodi-0.dtd" xmlns:inkscape="http://www.inkscape.org/namespaces/inkscape" width="32" height="32" viewBox="0 0 32 32" fill="none" version="1.1" id="SvgjsSvg1016" sodipodi:docname="nazar_oo.svg" inkscape:version="0.92.5 (2060ec1f9f, 2020-04-08)">
  <metadata id="SvgjsMetadata1015">
    <rdf:rdf>
      <cc:work rdf:about="">
        <dc:format>image/svg+xml</dc:format>
        <dc:type rdf:resource="http://purl.org/dc/dcmitype/StillImage"></dc:type>
        <dc:title></dc:title>
      </cc:work>
    </rdf:rdf>
  </metadata>
  <defs id="SvgjsDefs1014"></defs>
  <sodipodi:namedview pagecolor="#060a95" bordercolor="#666666" borderopacity="1" objecttolerance="10" gridtolerance="10" guidetolerance="10" inkscape:pageopacity="0" inkscape:pageshadow="2" inkscape:window-width="1509" inkscape:window-height="895" id="SvgjsSodipodi:namedview1013" showgrid="false" inkscape:zoom="20.85965" inkscape:cx="17.368934" inkscape:cy="16.558439" inkscape:window-x="1953" inkscape:window-y="117" inkscape:window-maximized="0" inkscape:current-layer="layer2" inkscape:pagecheckerboard="true"></sodipodi:namedview>
  <g inkscape:groupmode="layer" id="SvgjsG1012" inkscape:label="bg">
    <rect style="display:inline;fill:#060a95;fill-opacity:1" id="SvgjsRect1011" width="32.167366" height="32.071487" x="-0.047939442" y="-0.023547811" ry="10.354919"></rect>
  </g>
  <g inkscape:groupmode="layer" id="SvgjsG1010" inkscape:label="Layer 1" style="display:inline">
    <path style="fill:#9b9b9b" d="m 9.5442203,4.2881356 c -4.69442,0 -8.5000001,3.8056 -8.5000001,8.5000004 v 7 c 0,4.6944 3.8055801,8.5 8.5000001,8.5 2.6085307,0 4.9417307,-1.1754 6.5000307,-3.0227 1.5583,1.8473 3.8915,3.0227 6.5,3.0227 4.6944,0 8.5,-3.8056 8.5,-8.5 v -7 c 0,-4.6944004 -3.8056,-8.5000004 -8.5,-8.5000004 -2.6085,0 -4.9417,1.17537 -6.5,3.0227 -1.5583,-1.84733 -3.8915,-3.0227 -6.5000307,-3.0227 z" id="SvgjsPath1009" inkscape:connector-curvature="0"></path>
    <path style="fill:#ffffff" d="m 9.5442203,5.2881356 c -4.14213,0 -7.5,3.3579 -7.5,7.5000004 v 7 c 0,4.1421 3.35787,7.5 7.5,7.5 2.7784307,0 5.2040307,-1.5109 6.5000307,-3.7558 1.2959,2.2449 3.7215,3.7558 6.5,3.7558 4.1421,0 7.5,-3.3579 7.5,-7.5 v -7 c 0,-4.1421004 -3.3579,-7.5000004 -7.5,-7.5000004 -2.7785,0 -5.2041,1.51086 -6.5,3.7558 -1.296,-2.24494 -3.7216,-3.7558 -6.5000307,-3.7558 z" id="SvgjsPath1008" inkscape:connector-curvature="0"></path>
    <path style="fill:#d3d3d3" d="m 15.044251,12.788136 c 0,-1.3637 0.3639,-2.6423 1,-3.7442004 -0.8523,-1.4764 -2.1933,-2.63536 -3.8018,-3.2558 h -0.167 c 1.0938,0.65625 1.9375,3.25 1.9375,4.5000004 v 12.125 c 0,1.3747 -0.1562,3.0931 -1.9365,4.4368 1.6822,-0.6033 3.0863,-1.7907 3.9678,-3.3176 -0.6361,-1.1019 -1,-2.3805 -1,-3.7442 z" id="SvgjsPath1007" inkscape:connector-curvature="0"></path>
    <path style="fill:#d3d3d3" d="m 30.044251,12.788136 c 0,-3.1910004 -1.9928,-5.9165404 -4.8018,-7.0000004 h -0.167 c 1.6563,1.09375 2.9063,3.0625 2.9063,4.5312004 v 11.9688 c 0,1.3747 -1.1246,3.2181 -2.9053,4.5618 2.8961,-1.0387 4.9678,-3.8083 4.9678,-7.0618 z" id="SvgjsPath1006" inkscape:connector-curvature="0"></path>
    <path style="fill:#a1d1f1;fill-opacity:1;stroke-width:1.27118647" d="m 6.5526617,8.6610174 c -2.457203,0 -4.449153,1.9919496 -4.449153,4.4491526 v 6.355932 c 0,2.457203 1.99195,4.449153 4.449153,4.449153 2.457203,0 4.4491533,-1.99195 4.4491533,-4.449153 V 13.11017 c 0,-2.457203 -1.9919503,-4.4491526 -4.4491533,-4.4491526 z" id="SvgjsPath1005" inkscape:connector-curvature="0"></path>
    <path style="fill:#000000;fill-opacity:1" d="m 6.6067203,10.288136 c -1.933,0 -3.5,1.567 -3.5,3.5 v 5 c 0,1.933 1.567,3.5 3.5,3.5 1.933,0 3.5000297,-1.567 3.5000297,-3.5 v -5 c 0,-1.933 -1.5670297,-3.5 -3.5000297,-3.5 z" id="SvgjsPath1004" inkscape:connector-curvature="0"></path>
    <path inkscape:connector-curvature="0" id="SvgjsPath1003" d="m 19.544251,8.6610174 c -2.457203,0 -4.449153,1.9919496 -4.449153,4.4491526 v 6.355932 c 0,2.457203 1.99195,4.449153 4.449153,4.449153 2.457203,0 4.449153,-1.99195 4.449153,-4.449153 V 13.11017 c 0,-2.457203 -1.99195,-4.4491526 -4.449153,-4.4491526 z" style="fill:#a1d1f1;fill-opacity:1;stroke-width:1.27118647"></path>
    <path style="fill:#000000;fill-opacity:1" d="m 19.544251,10.288136 c -1.933,0 -3.5,1.567 -3.5,3.5 v 5 c 0,1.933 1.567,3.5 3.5,3.5 1.933,0 3.5,-1.567 3.5,-3.5 v -5 c 0,-1.933 -1.567,-3.5 -3.5,-3.5 z" id="SvgjsPath1002" inkscape:connector-curvature="0"></path>
    <path style="fill:#f4f4f4" d="m 8.7827303,14.149136 c 0.37145,-0.3092 0.35427,-0.9422 -0.03838,-1.4139 -0.39265,-0.4717 -1.01207,-0.6034 -1.38352,-0.2943 -0.37144,0.3092 -0.35426,0.9423 0.03839,1.414 0.39264,0.4717 1.01206,0.6034 1.38351,0.2942 z" id="SvgjsPath1001" inkscape:connector-curvature="0"></path>
    <path style="fill:#f4f4f4" d="m 21.779351,14.149136 c 0.3714,-0.3092 0.3542,-0.9422 -0.0384,-1.4139 -0.3927,-0.4717 -1.0121,-0.6034 -1.3835,-0.2943 -0.3715,0.3092 -0.3543,0.9423 0.0383,1.414 0.3927,0.4717 1.0121,0.6034 1.3836,0.2942 z" id="SvgjsPath1000" inkscape:connector-curvature="0"></path>
  </g>
</svg><style>@media (prefers-color-scheme: light) { :root { filter: none; } }
</style></svg>